<svg viewBox="0 0 100 100" xmlns="http://www.w3.org/2000/svg"><path d="M48.8 67.7c4.4 0 8.6-1.7 11.7-4.8 6.1-6.1 6.4-15.7 1-22.2l7-7v3.5c0 .8.7 1.5 1.5 1.5s1.5-.7 1.5-1.5V30c0-.2 0-.4-.1-.5-.2-.4-.4-.7-.8-.8-.2-.1-.4-.1-.5-.1H63c-.8 0-1.5.7-1.5 1.5s.7 1.5 1.5 1.5h3.5l-7 7c-3-2.5-6.7-3.8-10.6-3.8-4.4 0-8.6 1.7-11.7 4.8-6.4 6.4-6.4 16.9 0 23.3 3 3.1 7.2 4.8 11.6 4.8zm-9.6-26c2.5-2.5 5.9-4 9.5-4 3.6 0 7 1.4 9.5 4 5.3 5.3 5.3 13.8 0 19.1-2.5 2.5-5.9 4-9.5 4-3.6 0-7-1.4-9.5-4-5.2-5.3-5.2-13.9 0-19.1z"/></svg>